<svg id="Layer_1" data-name="Layer 1" xmlns="http://www.w3.org/2000/svg" xmlns:xlink="http://www.w3.org/1999/xlink" viewBox="0 0 900 450"><defs><style>.cls-1{fill:#deebff;opacity:0.5;}.cls-2,.cls-3,.cls-4{fill:none;stroke:#253858;stroke-miterlimit:10;stroke-width:2.32px;}.cls-3{stroke-dasharray:15.48 15.48;}.cls-4{stroke-dasharray:16.77 16.77;}.cls-5{fill:#57d9a3;}.cls-6{fill:#00c7e5;}.cls-7{fill:#6554c0;}.cls-8{fill:#2684ff;}.cls-9{fill:#0747a6;}.cls-10{fill:#253858;}.cls-11{fill:#0065ff;}.cls-12{fill:url(#linear-gradient);}.cls-13{fill:url(#linear-gradient-2);}</style><linearGradient id="linear-gradient" x1="89.23" y1="230.18" x2="600.7" y2="230.18" gradientUnits="userSpaceOnUse"><stop offset="0.4" stop-color="#4c9aff"/><stop offset="0.75" stop-color="#247eff"/></linearGradient><linearGradient id="linear-gradient-2" x1="304.75" y1="245.35" x2="516.78" y2="245.35" gradientUnits="userSpaceOnUse"><stop offset="0.74" stop-color="#247eff"/><stop offset="1" stop-color="#0065ff"/></linearGradient></defs><title>Artboard 1</title><rect class="cls-1" x="247.97" y="40.89" width="403.06" height="368.21"/><polyline class="cls-2" points="651.03 401.07 651.03 409.11 642.99 409.11"/><line class="cls-3" x1="627.51" y1="409.11" x2="263.75" y2="409.11"/><polyline class="cls-2" points="256.01 409.11 247.97 409.11 247.97 401.07"/><line class="cls-4" x1="247.97" y1="384.3" x2="247.97" y2="57.32"/><polyline class="cls-2" points="247.97 48.93 247.97 40.89 256.01 40.89"/><line class="cls-3" x1="271.49" y1="40.89" x2="635.25" y2="40.89"/><polyline class="cls-2" points="642.99 40.89 651.03 40.89 651.03 48.93"/><line class="cls-4" x1="651.03" y1="65.7" x2="651.03" y2="392.68"/><path class="cls-5" d="M547.77,95.56l-.45,2.34-4-.78L541,109l-2.59-.51,2.31-11.86-4-.78.45-2.33Z"/><path class="cls-5" d="M554.86,112.6l-2.38-.69,1.73-6c.54-1.88.15-3-1.33-3.41s-2.73.27-3.27,2.15l-1.72,5.93-2.39-.69,4.33-15,2.39.69-1.76,6.11a3.81,3.81,0,0,1,4-1c2.34.67,3.11,2.63,2.25,5.59Z"/><path class="cls-5" d="M561.72,115.58c-3.92-1.63-4.76-4.44-3.43-7.65s4-4.64,7.15-3.32,3.61,4.1,2.3,7.25l-.33.79-7.17-3c-.41,1.67.24,3,2.39,3.88a11.31,11.31,0,0,0,3.45.81l-.82,2A8.74,8.74,0,0,1,561.72,115.58Zm-.85-7.48,5,2.07c.63-1.81.26-3.09-1.25-3.71S561.73,106.5,560.87,108.1Z"/><path class="cls-5" d="M578,124.37,575.94,123l3.35-5.27c1.05-1.65,1-2.81-.31-3.64s-2.7-.52-3.75,1.14l-3.32,5.21-2.09-1.34L578.19,106l2.1,1.34-3.42,5.36a3.81,3.81,0,0,1,4.11.14c2.06,1.31,2.24,3.4.59,6Z"/><path class="cls-5" d="M583,121.07c2.26-2.53,5.32-3,7.84-.72s2.4,5.34.14,7.86-5.35,3-7.86.77S580.7,123.58,583,121.07Zm1.8,1.61c-1.28,1.43-1.7,3.26-.18,4.62s3.27.71,4.54-.72,1.71-3.22.2-4.57S586,121.25,584.75,122.68Z"/><path class="cls-5" d="M594.54,141.93l3.1-4.19,2.41-2.81-3.47,1.3-5,1.49-1.81-2.58,7-9.38,1.51,2.14-6,7.53,9.27-2.92,1.38,2-5.9,7.73,9.14-3.1,1.47,2.09-11.21,3.36Z"/><path class="cls-6" d="M319.2,164.89l1.76,1.6-2.76,3,8.93,8.13-1.77,2-8.93-8.13-2.76,3-1.75-1.6Z"/><path class="cls-6" d="M337.8,167.22l-1.82,1.7-4.26-4.57c-1.33-1.43-2.48-1.66-3.6-.61s-1.18,2.48.15,3.91l4.22,4.52-1.82,1.7L320,162.46l1.81-1.7,4.34,4.65a3.81,3.81,0,0,1,1.17-3.94c1.78-1.67,3.86-1.31,6,.94Z"/><path class="cls-6" d="M344.14,162.35c-3.31,2.65-6.17,2-8.34-.69s-2.16-5.7.54-7.86,5.33-1.18,7.46,1.48l.53.68-6.07,4.84c1.26,1.16,2.73,1.23,4.55-.23a11.29,11.29,0,0,0,2.38-2.62l1.33,1.66A8.72,8.72,0,0,1,344.14,162.35Zm-6.95-2.86,4.21-3.36c-1.28-1.43-2.58-1.72-3.85-.7S336.2,158,337.19,159.49Z"/><path class="cls-6" d="M361,150.34l-4-3.29-2.71-2.52,1.15,3.52,1.27,5.06L354,154.8l-9.07-7.4,2.2-1.4,7.26,6.35L351.85,143l2-1.29,7.46,6.23-2.7-9.27,2.16-1.37,2.87,11.34Z"/><path class="cls-6" d="M376.74,141.41l-2.19,1.18-3-5.5c-.93-1.72-2-2.23-3.34-1.5s-1.76,2.1-.83,3.82l2.93,5.44L368.16,146l-7.4-13.72,2.19-1.18,3,5.59a3.84,3.84,0,0,1,2.13-3.52c2.15-1.16,4.07-.29,5.53,2.42Z"/><path class="cls-6" d="M384.61,135.39A3.76,3.76,0,0,1,382.3,139c-2.58,1.23-4.9-.42-6.31-3.38s-1.17-5.85,1.55-7.14a3.53,3.53,0,0,1,4,.53l-.85-1.79,2.24-1.07,4.77,10-2.24,1.06Zm-2.51,1.19c1.31-.62,2.1-2,1.17-4l-.38-.81c-.93-1.95-2.41-2.29-3.68-1.69-1.67.8-2,2.33-1,4.42S380.57,137.31,382.1,136.58Z"/><path class="cls-6" d="M393.53,131.19a5.94,5.94,0,0,0,1-.56l.9,2.1a6.39,6.39,0,0,1-1.32.77c-2.29,1-3.87.08-4.72-1.91l-2.14-5-1.46.63-.86-2,1.46-.62-.92-2.14,2.24-1,.92,2.15L391,122.6l.86,2-2.45,1,2.06,4.79A1.38,1.38,0,0,0,393.53,131.19Z"/><path class="cls-7" d="M493.71,279.19l1.17,2.06-3.56,2,6,10.49-2.3,1.31-6-10.5-3.56,2-1.17-2.06Z"/><path class="cls-7" d="M510.34,285.64,508.25,287l-3.4-5.24c-1.06-1.65-2.15-2.07-3.44-1.23s-1.59,2.23-.53,3.88l3.36,5.18-2.08,1.36-8.48-13.09,2.08-1.36,3.46,5.34a3.82,3.82,0,0,1,1.84-3.68c2-1.33,4-.62,5.7,2Z"/><path class="cls-7" d="M517.35,280.8c-3.41,2.54-6.24,1.82-8.32-1s-2-5.78.81-7.84,5.37-1,7.4,1.74l.52.69-6.24,4.63c1.23,1.2,2.69,1.32,4.56-.07a11.11,11.11,0,0,0,2.46-2.55l1.28,1.72A8.93,8.93,0,0,1,517.35,280.8Zm-6.85-3.1,4.32-3.21c-1.23-1.47-2.52-1.8-3.82-.83S509.56,276.15,510.5,277.7Z"/><path class="cls-7" d="M533.77,266.67l-4.58-2.51-3.11-2,1.76,3.26,2.15,4.75-2.31,2.14-10.24-5.66,1.92-1.78,8.28,5L523.49,261l1.76-1.63,8.46,4.8-4.31-8.64,1.87-1.73,4.85,10.65Z"/><path class="cls-7" d="M546.72,253l-1.66,1.85-4.65-4.17c-1.46-1.31-2.62-1.43-3.65-.28s-1,2.57.51,3.88l4.6,4.13-1.65,1.85L528.6,249.87l1.65-1.85,4.74,4.24a3.81,3.81,0,0,1,.81-4c1.63-1.82,3.72-1.66,6,.4Z"/><path class="cls-7" d="M543.91,247.71c-2.7-2.05-3.39-5.06-1.33-7.76s5.13-2.81,7.82-.76,3.42,5.1,1.38,7.77S546.58,249.75,543.91,247.71Zm1.46-1.92c1.53,1.16,3.39,1.44,4.63-.19s.44-3.31-1.08-4.47-3.35-1.44-4.58.17S543.85,244.63,545.37,245.79Z"/><path class="cls-8" d="M143.52,306.68l-.33,14.45-2.64-.06.33-14.45Z"/><path class="cls-8" d="M155.92,321.45l-2.48-.06.17-6.69c0-1.71-.62-2.48-2.16-2.52s-2.57.95-2.63,2.9l-.15,6.18-2.49-.06.29-11.11,2.48.07,0,1.85a3.7,3.7,0,0,1,3.47-2c2.5.06,3.8,1.83,3.72,4.84Z"/><path class="cls-8" d="M160.82,319.65l-.18,6.22-2.48-.07.44-15.39,2.48.07-.06,2a3.74,3.74,0,0,1,3.63-2.12c2.88.08,4.21,2.65,4.12,5.91s-1.61,5.72-4.58,5.63A3.55,3.55,0,0,1,160.82,319.65Zm3-7.09c-1.47,0-2.77.87-2.83,3l0,.9c-.06,2.16,1.1,3.14,2.51,3.18,1.82,0,2.82-1.18,2.89-3.46S165.49,312.61,163.77,312.56Z"/><path class="cls-8" d="M170.7,310.76l2.48.07-.2,6.68c0,1.72.61,2.49,2.15,2.53s2.58-.91,2.64-2.89L178,311l2.48.08-.33,11.1-2.49-.07.06-1.87a3.68,3.68,0,0,1-3.49,2c-2.49-.07-3.78-1.83-3.69-4.86Z"/><path class="cls-8" d="M187.39,320.13a5.09,5.09,0,0,0,1.1-.1l-.07,2.29a6.67,6.67,0,0,1-1.52.13c-2.48-.08-3.54-1.56-3.47-3.72l.16-5.41-1.58-.05.07-2.17,1.58,0,.07-2.34,2.44.08-.07,2.33,2.66.08-.07,2.18L186,313.4l-.15,5.21A1.38,1.38,0,0,0,187.39,320.13Z"/><path class="cls-8" d="M194.08,322.8a9.06,9.06,0,0,1-4-1l.07-2.35a9.14,9.14,0,0,0,4,1.2c1.23,0,1.91-.45,1.93-1.18s-.54-1.13-2.33-1.61c-2.64-.67-3.62-1.76-3.57-3.54.07-2,1.64-3.19,4.26-3.11a8.2,8.2,0,0,1,3.69.93l-.07,2.29a9,9,0,0,0-3.71-1.1c-1.21,0-1.86.33-1.88,1.06s.43,1.09,2.24,1.57c2.67.67,3.76,1.72,3.7,3.59S197.14,322.89,194.08,322.8Z"/><path class="cls-9" d="M673.13,315.1c-1.22-4.18.37-7.84,4.72-9.11s7.64.95,8.86,5.13-.34,7.9-4.67,9.17S674.38,319.34,673.13,315.1Zm2.52-.74c.78,2.66,2.64,4.5,5.71,3.61s3.62-3.45,2.84-6.11-2.63-4.44-5.67-3.55S674.89,311.77,675.65,314.36Z"/><path class="cls-9" d="M687.13,307l2.37-.75,2,6.39c.51,1.63,1.39,2.14,2.86,1.68s2.14-1.71,1.54-3.6l-1.85-5.9,2.37-.74,3.33,10.6-2.37.75-.56-1.79a3.69,3.69,0,0,1-2.65,3c-2.37.75-4.17-.49-5.08-3.38Z"/><path class="cls-9" d="M705.89,310.26a5.31,5.31,0,0,0,1-.47l.71,2.18a7.16,7.16,0,0,1-1.39.64c-2.36.77-3.86-.26-4.53-2.31L700,305.16l-1.5.49-.68-2.07,1.5-.49-.73-2.22,2.32-.76.73,2.21,2.53-.83.68,2.07-2.53.83,1.63,5A1.38,1.38,0,0,0,705.89,310.26Z"/><path class="cls-9" d="M711.4,308.74l2,5.88-2.35.81-5-14.56,2.35-.81.65,1.9a3.72,3.72,0,0,1,2.65-3.26c2.72-.94,4.88,1,5.94,4.07s.5,5.92-2.31,6.89A3.55,3.55,0,0,1,711.4,308.74Zm.26-7.68c-1.39.48-2.29,1.79-1.59,3.83l.29.85c.71,2,2.14,2.55,3.47,2.09,1.72-.59,2.23-2.1,1.49-4.26S713.28,300.5,711.66,301.06Z"/><path class="cls-9" d="M717.24,297l2.34-.84,2.28,6.28c.59,1.61,1.48,2.08,2.93,1.56s2.06-1.8,1.38-3.66l-2.1-5.81,2.33-.85,3.79,10.44-2.33.85-.64-1.76a3.7,3.7,0,0,1-2.51,3.14c-2.34.84-4.19-.31-5.22-3.16Z"/><path class="cls-9" d="M736.13,299.48a5.67,5.67,0,0,0,1-.51l.8,2.14a6.57,6.57,0,0,1-1.35.7c-2.33.88-3.87-.09-4.63-2.1L730,294.64l-1.48.56-.77-2,1.48-.56-.82-2.18,2.28-.86.83,2.18,2.49-.94.77,2-2.49.94,1.84,4.88A1.38,1.38,0,0,0,736.13,299.48Z"/><path class="cls-9" d="M743.27,299.36a9.09,9.09,0,0,1-4,.68l-.86-2.19a9,9,0,0,0,4.16-.48c1.15-.45,1.58-1.16,1.31-1.83s-.94-.84-2.77-.57c-2.69.42-4-.2-4.67-1.85-.74-1.89.25-3.58,2.69-4.53a8.18,8.18,0,0,1,3.76-.6l.83,2.13a9.1,9.1,0,0,0-3.84.44c-1.13.44-1.58,1.05-1.31,1.72s.82.84,2.67.56c2.72-.43,4.13.11,4.81,1.85S746.12,298.25,743.27,299.36Z"/><path class="cls-10" d="M265.24,71.28a10.46,10.46,0,0,1-5.31-1.15V67.6a13,13,0,0,0,5.37,1.24c1.9,0,2.58-.73,2.58-1.81s-.71-1.65-3-2.2c-3.54-.77-4.93-2-4.93-4.38s1.81-4.07,5.31-4.07a9.56,9.56,0,0,1,4.62,1.06V59.9a10.69,10.69,0,0,0-4.71-1.12c-1.65,0-2.6.57-2.6,1.69s.82,1.52,3.08,2.07c3.37.75,4.91,1.92,4.91,4.4S269,71.28,265.24,71.28Z"/><path class="cls-10" d="M275.51,69.12v6.23H273V60h2.49v2a3.73,3.73,0,0,1,3.57-2.22c2.88,0,4.29,2.53,4.29,5.78s-1.46,5.77-4.43,5.77A3.56,3.56,0,0,1,275.51,69.12ZM278.26,62c-1.47,0-2.75.94-2.75,3.1V66c0,2.16,1.19,3.11,2.6,3.11,1.82,0,2.79-1.26,2.79-3.55S280,62,278.26,62Z"/><path class="cls-10" d="M288.2,71.06h-2.44V60h2.44V62a3.44,3.44,0,0,1,3.68-2.25v2.49c-2.38-.22-3.68.44-3.68,2.53Z"/><path class="cls-10" d="M295,55.41A1.58,1.58,0,1,1,293.37,57,1.52,1.52,0,0,1,295,55.41ZM293.77,60h2.49V71.06h-2.49Z"/><path class="cls-10" d="M309,71.06h-2.49V64.37c0-1.72-.68-2.47-2.22-2.47s-2.56,1-2.56,3v6.19h-2.48V60h2.48v1.84a3.72,3.72,0,0,1,3.41-2.06c2.51,0,3.86,1.73,3.86,4.75Z"/><path class="cls-10" d="M316.47,68.81a4.88,4.88,0,0,0,1.1-.13V71a6.14,6.14,0,0,1-1.51.18c-2.49,0-3.59-1.46-3.59-3.61V62.12h-1.58V60h1.58V57.61h2.44V60h2.66v2.17h-2.66v5.22A1.38,1.38,0,0,0,316.47,68.81Z"/><path class="cls-10" d="M326.75,69.12v6.23h-2.49V60h2.49v2a3.72,3.72,0,0,1,3.56-2.22c2.88,0,4.29,2.53,4.29,5.78s-1.45,5.77-4.42,5.77A3.56,3.56,0,0,1,326.75,69.12ZM329.5,62c-1.48,0-2.75.94-2.75,3.1V66c0,2.16,1.19,3.11,2.59,3.11,1.83,0,2.8-1.26,2.8-3.55S331.21,62,329.5,62Z"/><path class="cls-10" d="M340.15,71.12c-1.94,0-3.17-.9-3.17-3.08V55.46h2.48V67.74c0,.85.58,1.16,1.28,1.16a4.88,4.88,0,0,0,.53,0V71A3.69,3.69,0,0,1,340.15,71.12Z"/><path class="cls-10" d="M350.49,69.06a3.76,3.76,0,0,1-3.61,2.22c-2.86,0-4.25-2.49-4.25-5.77s1.45-5.78,4.47-5.78a3.55,3.55,0,0,1,3.39,2.2V60H353V71.06h-2.48Zm-2.78,0c1.46,0,2.78-1,2.78-3.11v-.9c0-2.16-1.19-3.1-2.6-3.1-1.85,0-2.79,1.25-2.79,3.56S346,69.06,347.71,69.06Z"/><path class="cls-10" d="M365.71,71.06h-2.49V64.37c0-1.72-.68-2.47-2.22-2.47s-2.55,1-2.55,3v6.19H356V60h2.49v1.84a3.7,3.7,0,0,1,3.41-2.06c2.51,0,3.85,1.73,3.85,4.75Z"/><path class="cls-10" d="M378.25,71.06h-2.49V64.37c0-1.72-.68-2.47-2.22-2.47s-2.55,1-2.55,3v6.19H368.5V60H371v1.84a3.7,3.7,0,0,1,3.41-2.06c2.51,0,3.85,1.73,3.85,4.75Z"/><path class="cls-10" d="M382.3,55.41A1.58,1.58,0,1,1,380.65,57,1.52,1.52,0,0,1,382.3,55.41ZM381,60h2.49V71.06H381Z"/><path class="cls-10" d="M396.27,71.06h-2.49V64.37c0-1.72-.68-2.47-2.22-2.47s-2.55,1-2.55,3v6.19h-2.49V60H389v1.84a3.7,3.7,0,0,1,3.41-2.06c2.51,0,3.85,1.73,3.85,4.75Z"/><path class="cls-10" d="M406.28,68.9a3.73,3.73,0,0,1-3.61,2.2c-2.82,0-4.2-2.44-4.2-5.68s1.43-5.69,4.42-5.69a3.57,3.57,0,0,1,3.39,2.17V60h2.46v10c0,3.33-1.6,5.57-5.74,5.57a12.44,12.44,0,0,1-4-.59V72.55a11.29,11.29,0,0,0,3.87.69c2.56,0,3.44-1.35,3.44-3.19Zm-2.78,0c1.5,0,2.78-1,2.78-3.14V65c0-2.16-1.17-3.1-2.58-3.1-1.85,0-2.81,1.25-2.81,3.49S401.81,68.92,403.5,68.92Z"/><path class="cls-11" d="M516.78,372.63,516.7,354c153.86-.64,275-68,276.24-68.63l9.12,16.18c-1.28.73-32,17.91-82.64,35.37C672.74,353,599.69,372.28,516.78,372.63Z"/><path class="cls-11" d="M598,165.51c-5.38-19.74-18.43-35-37.75-44.22-20.48-9.73-47-12.3-79-7.64-7.4,1.08-15.17,2.57-23.09,4.42l4.24,18.1c7.41-1.74,14.66-3.13,21.53-4.13,52.37-7.64,87.41,6.34,96.13,38.36,5.75,21.09-.62,47.64-17.47,72.85-18.82,28.16-48.8,51.67-84.42,66.19a239.8,239.8,0,0,1-74.95,16.83c-129.85,8.59-301.24.94-312.46,0l-1.54,18.53C96.9,345.44,171,349,258.49,349c47.54,0,99-1,146-4.14a258.7,258.7,0,0,0,80.74-18.17c39-15.91,72-41.86,92.85-73.08C597.89,223.89,605.16,191.8,598,165.51Z"/><path class="cls-11" d="M514.88,372.63c-43.67,0-82.67-6.31-115.95-18.78-31.24-11.7-56.42-28.72-72.8-49.22-18.43-23.07-25.27-50.16-19.24-76.29,11.58-50.26,66.72-90.45,151.28-110.27l4.24,18.1c-40.91,9.59-74,23.75-98.24,42.09C343,194.22,329.5,213,325,232.51c-4.79,20.78.62,41.71,15.65,60.52,14.29,17.88,36.7,32.9,64.8,43.42,31.64,11.85,69,17.77,111.25,17.59l.08,18.59Z"/><path class="cls-11" d="M516.78,372.63,516.7,354c153.86-.64,275-68,276.24-68.63l9.12,16.18c-1.28.73-32,17.91-82.64,35.37C672.74,353,599.69,372.28,516.78,372.63Z"/><path class="cls-12" d="M598,165.51c-5.38-19.74-18.43-35-37.75-44.22-20.48-9.73-47-12.3-79-7.64-7.4,1.08-15.17,2.57-23.09,4.42l4.24,18.1c7.41-1.74,14.66-3.13,21.53-4.13,52.37-7.64,87.41,6.34,96.13,38.36,5.75,21.09-.62,47.64-17.47,72.85-18.82,28.16-48.8,51.67-84.42,66.19a239.8,239.8,0,0,1-74.95,16.83c-129.85,8.59-301.24.94-312.46,0l-1.54,18.53C96.9,345.44,171,349,258.49,349c47.54,0,99-1,146-4.14a258.7,258.7,0,0,0,80.74-18.17c39-15.91,72-41.86,92.85-73.08C597.89,223.89,605.16,191.8,598,165.51Z"/><path class="cls-13" d="M514.88,372.63c-43.67,0-82.67-6.31-115.95-18.78-31.24-11.7-56.42-28.72-72.8-49.22-18.43-23.07-25.27-50.16-19.24-76.29,11.58-50.26,66.72-90.45,151.28-110.27l4.24,18.1c-40.91,9.59-74,23.75-98.24,42.09C343,194.22,329.5,213,325,232.51c-4.79,20.78.62,41.71,15.65,60.52,14.29,17.88,36.7,32.9,64.8,43.42,31.64,11.85,69,17.77,111.25,17.59l.08,18.59Z"/><polygon class="cls-11" points="800.16 338.04 779.58 334.33 786.41 296.39 754.43 277.86 764.91 259.77 809.59 285.65 800.16 338.04"/></svg>